<svg width="120" height="120" viewBox="0 0 120 120" fill="none" xmlns="http://www.w3.org/2000/svg">
  <!-- Círculo exterior rojo -->
  <circle cx="60" cy="60" r="58" fill="#EF4444" stroke="#1F2937" stroke-width="4"/>
  
  <!-- Ondas de agua en blanco -->
  <path d="M25 45 Q30 40, 35 45 T45 45 Q50 40, 55 45 T65 45 Q70 40, 75 45 T85 45 Q90 40, 95 45" 
        stroke="white" stroke-width="3" fill="none" stroke-linecap="round"/>
  
  <path d="M25 55 Q30 50, 35 55 T45 55 Q50 50, 55 55 T65 55 Q70 50, 75 55 T85 55 Q90 50, 95 55" 
        stroke="white" stroke-width="3" fill="none" stroke-linecap="round" opacity="0.7"/>
  
  <path d="M25 65 Q30 60, 35 65 T45 65 Q50 60, 55 65 T65 65 Q70 60, 75 65 T85 65 Q90 60, 95 65" 
        stroke="white" stroke-width="3" fill="none" stroke-linecap="round" opacity="0.5"/>
  
  <!-- Silueta nadador estilo libre -->
  <ellipse cx="60" cy="75" rx="18" ry="8" fill="white" opacity="0.9"/>
  <circle cx="55" cy="72" r="4" fill="white"/>
  <path d="M60 75 L75 70" stroke="white" stroke-width="3" stroke-linecap="round"/>
  <path d="M60 75 L65 82" stroke="white" stroke-width="2.5" stroke-linecap="round"/>
  
  <!-- Letras CNL en la parte inferior -->
  <text x="60" y="100" font-family="Arial, sans-serif" font-size="16" font-weight="bold" 
        fill="white" text-anchor="middle">CNL</text>
</svg>
